# xmcd
#
# Track frame offsets:
#	150
#	14965
#	26690
#	44387
#	67207
#	84542
#	102572
#	117642
#	131907
#	152700
#	170732
#
# Disc length: 2537 seconds
#
# Revision: 5
# Processed by: cddbd v1.5.2PL0 Copyright (c) Steve Scherf et al.
# Submitted via: EZCDAudioConverter 7.1.5.1
#
DISCID=a909e70b
DTITLE=Mary Chapin Carpenter - Shooting Straight in the Dark
DYEAR=1990
DGENRE=Country
TTITLE0=Going Out Tonight
TTITLE1=Right Now
TTITLE2=The More Things Change
TTITLE3=When Shes Gone
TTITLE4=Middle Ground
TTITLE5=Can`t Take Love For Granted
TTITLE6=Down At The Twist And Shout
TTITLE7=Halley Came To Jackson
TTITLE8=What You Didn't Say
TTITLE9=You Win Again
TTITLE10=The Moon And St Christopher
EXTD=
EXTT0=
EXTT1=
EXTT2=
EXTT3=
EXTT4=
EXTT5=
EXTT6=
EXTT7=
EXTT8=
EXTT9=
EXTT10=
PLAYORDER=
